<?xml version="1.0" encoding="UTF-8" standalone="no"?>
<!DOCTYPE svg PUBLIC "-//W3C//DTD SVG 1.1//EN"
 "http://www.w3.org/Graphics/SVG/1.1/DTD/svg11.dtd">
<!-- Generated by graphviz version 2.43.0 (0)
 -->
<!-- Title: Thread3Network Pages: 1 -->
<svg width="643pt" height="341pt"
 viewBox="0.00 0.00 643.00 341.00" xmlns="http://www.w3.org/2000/svg" xmlns:xlink="http://www.w3.org/1999/xlink">
<g id="graph0" class="graph" transform="scale(1 1) rotate(0) translate(4 337)">
<title>Thread3Network</title>
<polygon fill="white" stroke="transparent" points="-4,4 -4,-337 639,-337 639,4 -4,4"/>
<!-- USSR -->
<g id="node1" class="node">
<title>USSR</title>
<ellipse fill="#4ecdc4" stroke="black" cx="233.91" cy="-211.17" rx="38.37" ry="16.03"/>
<text text-anchor="middle" x="233.91" y="-207.47" font-family="Arial" font-size="14.00">USSR</text>
</g>
<!-- cia -->
<g id="node2" class="node">
<title>cia</title>
<ellipse fill="#4ecdc4" stroke="black" cx="317.74" cy="-181.98" rx="24.08" ry="16.03"/>
<text text-anchor="middle" x="317.74" y="-178.28" font-family="Arial" font-size="14.00">cia</text>
</g>
<!-- USSR&#45;&#45;cia -->
<g id="edge10" class="edge">
<title>USSR&#45;&#45;cia</title>
<path fill="none" stroke="#888888" stroke-width="1.6" stroke-opacity="0.266667" d="M263.7,-200.8C274.43,-197.06 286.32,-192.92 296.21,-189.48"/>
</g>
<!-- mod -->
<g id="node11" class="node">
<title>mod</title>
<ellipse fill="#4ecdc4" stroke="black" cx="98.68" cy="-109.36" rx="31.23" ry="16.03"/>
<text text-anchor="middle" x="98.68" y="-105.66" font-family="Arial" font-size="14.00">mod</text>
</g>
<!-- USSR&#45;&#45;mod -->
<g id="edge6" class="edge">
<title>USSR&#45;&#45;mod</title>
<path fill="none" stroke="#888888" stroke-width="1.2" stroke-opacity="0.266667" d="M215.1,-197.02C188.98,-177.35 142.04,-142 116.47,-122.75"/>
</g>
<!-- dia -->
<g id="node7" class="node">
<title>dia</title>
<ellipse fill="#4ecdc4" stroke="black" cx="276.64" cy="-15.79" rx="25" ry="16.03"/>
<text text-anchor="middle" x="276.64" y="-12.09" font-family="Arial" font-size="14.00">dia</text>
</g>
<!-- cia&#45;&#45;dia -->
<g id="edge7" class="edge">
<title>cia&#45;&#45;dia</title>
<path fill="none" stroke="#888888" stroke-width="1.4" stroke-opacity="0.266667" d="M313.72,-165.74C305.85,-133.88 288.45,-63.55 280.61,-31.84"/>
</g>
<!-- Russia -->
<g id="node3" class="node">
<title>Russia</title>
<ellipse fill="#4ecdc4" stroke="black" cx="228.35" cy="-141.17" rx="41.02" ry="16.03"/>
<text text-anchor="middle" x="228.35" y="-137.47" font-family="Arial" font-size="14.00">Russia</text>
</g>
<!-- Russia&#45;&#45;USSR -->
<g id="edge8" class="edge">
<title>Russia&#45;&#45;USSR</title>
<path fill="none" stroke="#888888" stroke-width="1.2" stroke-opacity="0.266667" d="M229.67,-157.76C230.55,-168.92 231.72,-183.57 232.6,-194.7"/>
</g>
<!-- Russia&#45;&#45;cia -->
<g id="edge9" class="edge">
<title>Russia&#45;&#45;cia</title>
<path fill="none" stroke="#888888" stroke-width="1.2" stroke-opacity="0.266667" d="M255.66,-153.63C269.21,-159.82 285.29,-167.16 297.69,-172.82"/>
</g>
<!-- Ministry of Defense -->
<g id="node4" class="node">
<title>Ministry of Defense</title>
<ellipse fill="#4ecdc4" stroke="black" cx="93.66" cy="-247.58" rx="94.09" ry="16.03"/>
<text text-anchor="middle" x="93.66" y="-243.88" font-family="Arial" font-size="14.00">Ministry of Defense</text>
</g>
<!-- Ministry of Defense&#45;&#45;Russia -->
<g id="edge3" class="edge">
<title>Ministry of Defense&#45;&#45;Russia</title>
<path fill="none" stroke="#888888" stroke-width="1.4" stroke-opacity="0.266667" d="M113.83,-231.65C139.81,-211.12 184.61,-175.73 209.79,-155.84"/>
</g>
<!-- Moscow -->
<g id="node5" class="node">
<title>Moscow</title>
<ellipse fill="#ffe66d" stroke="black" cx="373.72" cy="-303.11" rx="47.25" ry="16.03"/>
<text text-anchor="middle" x="373.72" y="-299.41" font-family="Arial" font-size="14.00">Moscow</text>
</g>
<!-- Moscow&#45;&#45;USSR -->
<g id="edge4" class="edge">
<title>Moscow&#45;&#45;USSR</title>
<path fill="none" stroke="#888888" stroke-width="1.4" stroke-opacity="0.266667" d="M351.57,-288.54C325.08,-271.12 281.07,-242.19 255.04,-225.07"/>
</g>
<!-- MOD -->
<g id="node6" class="node">
<title>MOD</title>
<ellipse fill="#4ecdc4" stroke="black" cx="257.85" cy="-303.57" rx="35.21" ry="16.03"/>
<text text-anchor="middle" x="257.85" y="-299.87" font-family="Arial" font-size="14.00">MOD</text>
</g>
<!-- MOD&#45;&#45;cia -->
<g id="edge11" class="edge">
<title>MOD&#45;&#45;cia</title>
<path fill="none" stroke="#888888" stroke-width="1.2" stroke-opacity="0.266667" d="M265.68,-287.67C277.22,-264.24 298.66,-220.7 310.1,-197.49"/>
</g>
<!-- MOD&#45;&#45;Russia -->
<g id="edge5" class="edge">
<title>MOD&#45;&#45;Russia</title>
<path fill="none" stroke="#888888" stroke-width="1.2" stroke-opacity="0.266667" d="M264.23,-287.51C270.73,-269.06 279.13,-237.91 273.69,-211.32 269.36,-190.15 254.71,-169.86 243.22,-156.6"/>
</g>
<!-- Harry Reid -->
<g id="node8" class="node">
<title>Harry Reid</title>
<ellipse fill="#95e1d3" stroke="black" cx="410.73" cy="-76.94" rx="57.05" ry="16.03"/>
<text text-anchor="middle" x="410.73" y="-73.24" font-family="Arial" font-size="14.00">Harry Reid</text>
</g>
<!-- Harry Reid&#45;&#45;Russia -->
<g id="edge1" class="edge">
<title>Harry Reid&#45;&#45;Russia</title>
<path fill="none" stroke="#888888" stroke-width="1.2" stroke-opacity="0.266667" d="M374.7,-89.63C340.96,-101.51 291.09,-119.08 259.16,-130.32"/>
</g>
<!-- Kona Blue -->
<g id="node9" class="node">
<title>Kona Blue</title>
<ellipse fill="#95e1d3" stroke="black" cx="415.91" cy="-257.18" rx="55.72" ry="16.03"/>
<text text-anchor="middle" x="415.91" y="-253.48" font-family="Arial" font-size="14.00">Kona Blue</text>
</g>
<!-- James Lacatski -->
<g id="node10" class="node">
<title>James Lacatski</title>
<ellipse fill="#95e1d3" stroke="black" cx="557.57" cy="-236.02" rx="77.56" ry="16.03"/>
<text text-anchor="middle" x="557.57" y="-232.32" font-family="Arial" font-size="14.00">James Lacatski</text>
</g>
<!-- James Lacatski&#45;&#45;Kona Blue -->
<g id="edge2" class="edge">
<title>James Lacatski&#45;&#45;Kona Blue</title>
<path fill="none" stroke="#888888" stroke-width="1.2" stroke-opacity="0.266667" d="M494.2,-245.49C484.62,-246.92 474.86,-248.38 465.63,-249.76"/>
</g>
<!-- AAWSAP -->
<g id="node12" class="node">
<title>AAWSAP</title>
<ellipse fill="#ff6b6b" stroke="black" cx="213.24" cy="-96.64" rx="53.07" ry="16.03"/>
<text text-anchor="middle" x="213.24" y="-92.94" font-family="Arial" font-size="14.00">AAWSAP</text>
</g>
<!-- ussR -->
<g id="node13" class="node">
<title>ussR</title>
<ellipse fill="#4ecdc4" stroke="black" cx="413.24" cy="-156.64" rx="33.47" ry="16.03"/>
<text text-anchor="middle" x="413.24" y="-152.94" font-family="Arial" font-size="14.00">ussR</text>
</g>
<!-- ussr -->
<g id="node14" class="node">
<title>ussr</title>
<ellipse fill="#4ecdc4" stroke="black" cx="149.24" cy="-316.64" rx="29.9" ry="16.03"/>
<text text-anchor="middle" x="149.24" y="-312.94" font-family="Arial" font-size="14.00">ussr</text>
</g>
</g>
</svg>
