<?xml version="1.0" encoding="UTF-8" standalone="no"?>
<!DOCTYPE svg PUBLIC "-//W3C//DTD SVG 1.1//EN"
 "http://www.w3.org/Graphics/SVG/1.1/DTD/svg11.dtd">
<!-- Generated by graphviz version 2.43.0 (0)
 -->
<!-- Title: JFKNetwork Pages: 1 -->
<svg width="1208pt" height="1037pt"
 viewBox="0.00 0.00 1208.00 1037.00" xmlns="http://www.w3.org/2000/svg" xmlns:xlink="http://www.w3.org/1999/xlink">
<g id="graph0" class="graph" transform="scale(1 1) rotate(0) translate(4 1033)">
<title>JFKNetwork</title>
<polygon fill="white" stroke="transparent" points="-4,4 -4,-1033 1204,-1033 1204,4 -4,4"/>
<!-- CIA -->
<g id="node1" class="node">
<title>CIA</title>
<ellipse fill="#ff6b6b" stroke="black" cx="581.34" cy="-472.4" rx="66.5" ry="66.5"/>
<text text-anchor="middle" x="581.34" y="-468.7" font-family="Arial" font-size="14.00">CIA</text>
</g>
<!-- George Joannides -->
<g id="node2" class="node">
<title>George Joannides</title>
<ellipse fill="#4ecdc4" stroke="black" cx="724.33" cy="-413.52" rx="65.29" ry="56"/>
<text text-anchor="middle" x="724.33" y="-409.82" font-family="Arial" font-size="14.00">George Joannides</text>
</g>
<!-- CIA&#45;&#45;George Joannides -->
<g id="edge4" class="edge">
<title>CIA&#45;&#45;George Joannides</title>
<path fill="none" stroke="#888888" stroke-width="4.5" stroke-opacity="0.266667" d="M643.23,-446.92C650.47,-443.93 657.85,-440.89 665.06,-437.93"/>
</g>
<!-- DRE -->
<g id="node3" class="node">
<title>DRE</title>
<ellipse fill="#ff6b6b" stroke="black" cx="640.1" cy="-273.08" rx="50.5" ry="50.5"/>
<text text-anchor="middle" x="640.1" y="-269.38" font-family="Arial" font-size="14.00">DRE</text>
</g>
<!-- CIA&#45;&#45;DRE -->
<g id="edge6" class="edge">
<title>CIA&#45;&#45;DRE</title>
<path fill="none" stroke="#888888" stroke-width="3.5" stroke-opacity="0.266667" d="M600.18,-408.51C608.47,-380.38 618.05,-347.88 625.75,-321.76"/>
</g>
<!-- HSCA -->
<g id="node4" class="node">
<title>HSCA</title>
<ellipse fill="#ff6b6b" stroke="black" cx="386.39" cy="-519.43" rx="38" ry="38"/>
<text text-anchor="middle" x="386.39" y="-515.73" font-family="Arial" font-size="14.00">HSCA</text>
</g>
<!-- CIA&#45;&#45;HSCA -->
<g id="edge1" class="edge">
<title>CIA&#45;&#45;HSCA</title>
<path fill="none" stroke="#888888" stroke-width="3.5" stroke-opacity="0.266667" d="M516.43,-488.06C485.52,-495.51 449.69,-504.16 423.47,-510.48"/>
</g>
<!-- Oswald -->
<g id="node5" class="node">
<title>Oswald</title>
<ellipse fill="#4ecdc4" stroke="black" cx="811.1" cy="-534.68" rx="34" ry="34"/>
<text text-anchor="middle" x="811.1" y="-530.98" font-family="Arial" font-size="14.00">Oswald</text>
</g>
<!-- CIA&#45;&#45;Oswald -->
<g id="edge32" class="edge">
<title>CIA&#45;&#45;Oswald</title>
<path fill="none" stroke="#888888" stroke-width="1.5" stroke-opacity="0.266667" d="M645.65,-489.83C688.79,-501.53 743.83,-516.44 778.27,-525.78"/>
</g>
<!-- Warren Commission -->
<g id="node6" class="node">
<title>Warren Commission</title>
<ellipse fill="#ff6b6b" stroke="black" cx="411.13" cy="-146.66" rx="77.24" ry="27"/>
<text text-anchor="middle" x="411.13" y="-142.96" font-family="Arial" font-size="14.00">Warren Commission</text>
</g>
<!-- CIA&#45;&#45;Warren Commission -->
<g id="edge28" class="edge">
<title>CIA&#45;&#45;Warren Commission</title>
<path fill="none" stroke="#888888" stroke-width="2" stroke-opacity="0.266667" d="M531.29,-428.07C507.78,-404.81 481.18,-374.6 463.87,-342.89 433.54,-287.31 419.81,-213.19 414.32,-173.86"/>
</g>
<!-- Church Committee -->
<g id="node9" class="node">
<title>Church Committee</title>
<ellipse fill="#ff6b6b" stroke="black" cx="314.3" cy="-372.77" rx="77.54" ry="21.5"/>
<text text-anchor="middle" x="314.3" y="-369.07" font-family="Arial" font-size="14.00">Church Committee</text>
</g>
<!-- CIA&#45;&#45;Church Committee -->
<g id="edge23" class="edge">
<title>CIA&#45;&#45;Church Committee</title>
<path fill="none" stroke="#888888" stroke-width="1.5" stroke-opacity="0.266667" d="M518.73,-449.04C470.33,-430.98 404.41,-406.39 360.66,-390.07"/>
</g>
<!-- Richard Helms -->
<g id="node11" class="node">
<title>Richard Helms</title>
<ellipse fill="#4ecdc4" stroke="black" cx="600.9" cy="-20.19" rx="64.56" ry="20"/>
<text text-anchor="middle" x="600.9" y="-16.49" font-family="Arial" font-size="14.00">Richard Helms</text>
</g>
<!-- CIA&#45;&#45;Richard Helms -->
<g id="edge14" class="edge">
<title>CIA&#45;&#45;Richard Helms</title>
<path fill="none" stroke="#888888" stroke-width="1.5" stroke-opacity="0.266667" d="M583.27,-405.83C584.46,-367.01 586.13,-317.09 588,-272.73 591.65,-186.32 597.32,-83.35 599.74,-40.48"/>
</g>
<!-- William Gaudet -->
<g id="node13" class="node">
<title>William Gaudet</title>
<ellipse fill="#4ecdc4" stroke="black" cx="1003.91" cy="-767.35" rx="67.45" ry="20"/>
<text text-anchor="middle" x="1003.91" y="-763.65" font-family="Arial" font-size="14.00">William Gaudet</text>
</g>
<!-- CIA&#45;&#45;William Gaudet -->
<g id="edge34" class="edge">
<title>CIA&#45;&#45;William Gaudet</title>
<path fill="none" stroke="#888888" stroke-width="1.5" stroke-opacity="0.266667" d="M636.15,-510.66C727.94,-574.72 909.34,-701.34 977.34,-748.81"/>
</g>
<!-- Mexico -->
<g id="node14" class="node">
<title>Mexico</title>
<ellipse fill="#ffe66d" stroke="black" cx="715.61" cy="-782.62" rx="36.84" ry="20"/>
<text text-anchor="middle" x="715.61" y="-778.92" font-family="Arial" font-size="14.00">Mexico</text>
</g>
<!-- CIA&#45;&#45;Mexico -->
<g id="edge35" class="edge">
<title>CIA&#45;&#45;Mexico</title>
<path fill="none" stroke="#888888" stroke-width="1.5" stroke-opacity="0.266667" d="M607.87,-533.69C638.59,-604.67 687.49,-717.65 707.09,-762.92"/>
</g>
<!-- G. Robert Blakey -->
<g id="node15" class="node">
<title>G. Robert Blakey</title>
<ellipse fill="#4ecdc4" stroke="black" cx="538.33" cy="-753.92" rx="73.17" ry="20"/>
<text text-anchor="middle" x="538.33" y="-750.22" font-family="Arial" font-size="14.00">G. Robert Blakey</text>
</g>
<!-- CIA&#45;&#45;G. Robert Blakey -->
<g id="edge43" class="edge">
<title>CIA&#45;&#45;G. Robert Blakey</title>
<path fill="none" stroke="#888888" stroke-width="1.5" stroke-opacity="0.266667" d="M571.26,-538.4C561.57,-601.79 547.54,-693.65 541.4,-733.84"/>
</g>
<!-- John McCone -->
<g id="node17" class="node">
<title>John McCone</title>
<ellipse fill="#4ecdc4" stroke="black" cx="120.59" cy="-169.36" rx="61.95" ry="20"/>
<text text-anchor="middle" x="120.59" y="-165.66" font-family="Arial" font-size="14.00">John McCone</text>
</g>
<!-- CIA&#45;&#45;John McCone -->
<g id="edge49" class="edge">
<title>CIA&#45;&#45;John McCone</title>
<path fill="none" stroke="#888888" stroke-width="1.5" stroke-opacity="0.266667" d="M525.76,-435.85C426.44,-370.52 221.93,-236.02 148.01,-187.4"/>
</g>
<!-- David Robarge -->
<g id="node18" class="node">
<title>David Robarge</title>
<ellipse fill="#4ecdc4" stroke="black" cx="64.93" cy="-468.85" rx="65.28" ry="20"/>
<text text-anchor="middle" x="64.93" y="-465.15" font-family="Arial" font-size="14.00">David Robarge</text>
</g>
<!-- CIA&#45;&#45;David Robarge -->
<g id="edge50" class="edge">
<title>CIA&#45;&#45;David Robarge</title>
<path fill="none" stroke="#888888" stroke-width="1.5" stroke-opacity="0.266667" d="M514.62,-471.94C415.24,-471.26 229.45,-469.98 130.65,-469.3"/>
</g>
<!-- JFK -->
<g id="node19" class="node">
<title>JFK</title>
<ellipse fill="#ff6b6b" stroke="black" cx="235.08" cy="-805.56" rx="26.8" ry="18"/>
<text text-anchor="middle" x="235.08" y="-801.86" font-family="Arial" font-size="14.00">JFK</text>
</g>
<!-- CIA&#45;&#45;JFK -->
<g id="edge2" class="edge">
<title>CIA&#45;&#45;JFK</title>
<path fill="none" stroke="#888888" stroke-width="1.5" stroke-opacity="0.266667" d="M533.2,-518.72C453.85,-595.07 299.5,-743.57 250.44,-790.78"/>
</g>
<!-- George Joannides&#45;&#45;HSCA -->
<g id="edge5" class="edge">
<title>George Joannides&#45;&#45;HSCA</title>
<path fill="none" stroke="#888888" stroke-width="2.5" stroke-opacity="0.266667" d="M659.7,-403.17C635.12,-400.85 606.93,-400.14 581.56,-404.3 514.98,-415.22 450.01,-463.18 414.38,-493.65"/>
</g>
<!-- George Joannides&#45;&#45;Oswald -->
<g id="edge17" class="edge">
<title>George Joannides&#45;&#45;Oswald</title>
<path fill="none" stroke="#888888" stroke-width="1.5" stroke-opacity="0.266667" d="M758.62,-461.4C769.71,-476.88 781.62,-493.52 791.29,-507.02"/>
</g>
<!-- JMWAVE -->
<g id="node8" class="node">
<title>JMWAVE</title>
<ellipse fill="#ff6b6b" stroke="black" cx="948.43" cy="-296.65" rx="41.84" ry="25"/>
<text text-anchor="middle" x="948.43" y="-292.95" font-family="Arial" font-size="14.00">JMWAVE</text>
</g>
<!-- George Joannides&#45;&#45;JMWAVE -->
<g id="edge41" class="edge">
<title>George Joannides&#45;&#45;JMWAVE</title>
<path fill="none" stroke="#888888" stroke-width="1.5" stroke-opacity="0.266667" d="M780.3,-384.33C823.47,-361.82 881.61,-331.5 916.98,-313.05"/>
</g>
<!-- George Joannides&#45;&#45;Richard Helms -->
<g id="edge15" class="edge">
<title>George Joannides&#45;&#45;Richard Helms</title>
<path fill="none" stroke="#888888" stroke-width="1.5" stroke-opacity="0.266667" d="M713.26,-358.23C707.66,-332.29 700.32,-301.07 692.2,-273.42 666.25,-185.09 626.17,-82.75 609.08,-40.26"/>
</g>
<!-- New Orleans -->
<g id="node12" class="node">
<title>New Orleans</title>
<ellipse fill="#ffe66d" stroke="black" cx="523.53" cy="-343.04" rx="58.12" ry="20"/>
<text text-anchor="middle" x="523.53" y="-339.34" font-family="Arial" font-size="14.00">New Orleans</text>
</g>
<!-- George Joannides&#45;&#45;New Orleans -->
<g id="edge20" class="edge">
<title>George Joannides&#45;&#45;New Orleans</title>
<path fill="none" stroke="#888888" stroke-width="1.5" stroke-opacity="0.266667" d="M663.81,-392.28C631.59,-380.97 592.83,-367.36 564.23,-357.32"/>
</g>
<!-- DRE&#45;&#45;George Joannides -->
<g id="edge7" class="edge">
<title>DRE&#45;&#45;George Joannides</title>
<path fill="none" stroke="#888888" stroke-width="4" stroke-opacity="0.266667" d="M666.29,-316.74C675.17,-331.56 685.17,-348.23 694.33,-363.5"/>
</g>
<!-- DRE&#45;&#45;HSCA -->
<g id="edge27" class="edge">
<title>DRE&#45;&#45;HSCA</title>
<path fill="none" stroke="#888888" stroke-width="1.5" stroke-opacity="0.266667" d="M609.25,-313.32C601.08,-323.34 592.05,-333.88 583.19,-343.19 527.67,-401.47 455.78,-462.67 416.06,-495.4"/>
</g>
<!-- DRE&#45;&#45;Oswald -->
<g id="edge19" class="edge">
<title>DRE&#45;&#45;Oswald</title>
<path fill="none" stroke="#888888" stroke-width="1.5" stroke-opacity="0.266667" d="M683.89,-298.58C711.86,-316.58 747.35,-342.8 771.91,-372.97 801.63,-409.49 809.39,-465.06 811.11,-500.62"/>
</g>
<!-- DRE&#45;&#45;Warren Commission -->
<g id="edge26" class="edge">
<title>DRE&#45;&#45;Warren Commission</title>
<path fill="none" stroke="#888888" stroke-width="1.5" stroke-opacity="0.266667" d="M595.68,-248.55C554.32,-225.72 493.15,-191.94 452.73,-169.62"/>
</g>
<!-- David Atlee Phillips -->
<g id="node7" class="node">
<title>David Atlee Phillips</title>
<ellipse fill="#4ecdc4" stroke="black" cx="922.25" cy="-70.4" rx="73.54" ry="25"/>
<text text-anchor="middle" x="922.25" y="-66.7" font-family="Arial" font-size="14.00">David Atlee Phillips</text>
</g>
<!-- DRE&#45;&#45;David Atlee Phillips -->
<g id="edge40" class="edge">
<title>DRE&#45;&#45;David Atlee Phillips</title>
<path fill="none" stroke="#888888" stroke-width="1.5" stroke-opacity="0.266667" d="M681.13,-243.61C737.83,-202.87 838.96,-130.23 890.36,-93.31"/>
</g>
<!-- DRE&#45;&#45;JMWAVE -->
<g id="edge42" class="edge">
<title>DRE&#45;&#45;JMWAVE</title>
<path fill="none" stroke="#888888" stroke-width="1.5" stroke-opacity="0.266667" d="M690.67,-276.94C750.98,-281.55 850.65,-289.17 906.74,-293.46"/>
</g>
<!-- DRE&#45;&#45;Richard Helms -->
<g id="edge16" class="edge">
<title>DRE&#45;&#45;Richard Helms</title>
<path fill="none" stroke="#888888" stroke-width="1.5" stroke-opacity="0.266667" d="M632.35,-223.11C623.7,-167.26 610.1,-79.52 604.02,-40.3"/>
</g>
<!-- DRE&#45;&#45;New Orleans -->
<g id="edge21" class="edge">
<title>DRE&#45;&#45;New Orleans</title>
<path fill="none" stroke="#888888" stroke-width="1.5" stroke-opacity="0.266667" d="M596.69,-299.13C581.93,-307.99 565.81,-317.66 552.47,-325.67"/>
</g>
<!-- HSCA&#45;&#45;Warren Commission -->
<g id="edge29" class="edge">
<title>HSCA&#45;&#45;Warren Commission</title>
<path fill="none" stroke="#888888" stroke-width="1.5" stroke-opacity="0.266667" d="M388.92,-481.29C393.92,-405.95 404.96,-239.68 409.31,-174.06"/>
</g>
<!-- HSCA&#45;&#45;JFK -->
<g id="edge3" class="edge">
<title>HSCA&#45;&#45;JFK</title>
<path fill="none" stroke="#888888" stroke-width="1.5" stroke-opacity="0.266667" d="M368.59,-553.09C336.17,-614.4 268.59,-742.19 244.15,-788.41"/>
</g>
<!-- Oswald&#45;&#45;William Gaudet -->
<g id="edge30" class="edge">
<title>Oswald&#45;&#45;William Gaudet</title>
<path fill="none" stroke="#888888" stroke-width="1.5" stroke-opacity="0.266667" d="M832.84,-560.92C871.94,-608.1 953.26,-706.23 987.82,-747.93"/>
</g>
<!-- David Atlee Phillips&#45;&#45;George Joannides -->
<g id="edge39" class="edge">
<title>David Atlee Phillips&#45;&#45;George Joannides</title>
<path fill="none" stroke="#888888" stroke-width="1.5" stroke-opacity="0.266667" d="M908.01,-95.08C875.75,-151.01 796.52,-288.36 753.41,-363.1"/>
</g>
<!-- David Atlee Phillips&#45;&#45;Oswald -->
<g id="edge8" class="edge">
<title>David Atlee Phillips&#45;&#45;Oswald</title>
<path fill="none" stroke="#888888" stroke-width="1.5" stroke-opacity="0.266667" d="M916.27,-95.36C897.58,-173.43 840.22,-413.03 819.05,-501.44"/>
</g>
<!-- David Atlee Phillips&#45;&#45;JMWAVE -->
<g id="edge12" class="edge">
<title>David Atlee Phillips&#45;&#45;JMWAVE</title>
<path fill="none" stroke="#888888" stroke-width="2" stroke-opacity="0.266667" d="M925.15,-95.48C930.18,-138.97 940.47,-227.89 945.51,-271.46"/>
</g>
<!-- Mexico City -->
<g id="node10" class="node">
<title>Mexico City</title>
<ellipse fill="#ffe66d" stroke="black" cx="1146.88" cy="-273.4" rx="53.34" ry="20"/>
<text text-anchor="middle" x="1146.88" y="-269.7" font-family="Arial" font-size="14.00">Mexico City</text>
</g>
<!-- David Atlee Phillips&#45;&#45;Mexico City -->
<g id="edge11" class="edge">
<title>David Atlee Phillips&#45;&#45;Mexico City</title>
<path fill="none" stroke="#888888" stroke-width="1.5" stroke-opacity="0.266667" d="M948.45,-94.09C993.59,-134.87 1085.1,-217.56 1126.14,-254.65"/>
</g>
<!-- JMWAVE&#45;&#45;Oswald -->
<g id="edge10" class="edge">
<title>JMWAVE&#45;&#45;Oswald</title>
<path fill="none" stroke="#888888" stroke-width="1.5" stroke-opacity="0.266667" d="M934.76,-320.34C909.52,-364.09 855.68,-457.41 828.12,-505.18"/>
</g>
<!-- JMWAVE&#45;&#45;Mexico City -->
<g id="edge13" class="edge">
<title>JMWAVE&#45;&#45;Mexico City</title>
<path fill="none" stroke="#888888" stroke-width="1.5" stroke-opacity="0.266667" d="M989.55,-291.83C1020.43,-288.21 1062.9,-283.24 1095.94,-279.37"/>
</g>
<!-- Church Committee&#45;&#45;DRE -->
<g id="edge22" class="edge">
<title>Church Committee&#45;&#45;DRE</title>
<path fill="none" stroke="#888888" stroke-width="1.5" stroke-opacity="0.266667" d="M366.65,-356.76C428.7,-337.77 531.29,-306.37 591.61,-287.92"/>
</g>
<!-- Church Committee&#45;&#45;HSCA -->
<g id="edge25" class="edge">
<title>Church Committee&#45;&#45;HSCA</title>
<path fill="none" stroke="#888888" stroke-width="1.5" stroke-opacity="0.266667" d="M324.79,-394.1C336.54,-418.01 355.76,-457.12 369.61,-485.3"/>
</g>
<!-- Church Committee&#45;&#45;Warren Commission -->
<g id="edge24" class="edge">
<title>Church Committee&#45;&#45;Warren Commission</title>
<path fill="none" stroke="#888888" stroke-width="1.5" stroke-opacity="0.266667" d="M323.59,-351.09C341.39,-309.53 380.26,-218.76 399.65,-173.47"/>
</g>
<!-- Mexico City&#45;&#45;Oswald -->
<g id="edge9" class="edge">
<title>Mexico City&#45;&#45;Oswald</title>
<path fill="none" stroke="#888888" stroke-width="1.5" stroke-opacity="0.266667" d="M1123.54,-291.56C1063.15,-338.55 902.07,-463.89 837.96,-513.77"/>
</g>
<!-- New Orleans&#45;&#45;Oswald -->
<g id="edge18" class="edge">
<title>New Orleans&#45;&#45;Oswald</title>
<path fill="none" stroke="#888888" stroke-width="1.5" stroke-opacity="0.266667" d="M547.49,-361.39C577.26,-383.97 629.88,-423.11 676.75,-454.07 711.93,-477.31 753.76,-501.96 781.29,-517.79"/>
</g>
<!-- Mexico&#45;&#45;Oswald -->
<g id="edge31" class="edge">
<title>Mexico&#45;&#45;Oswald</title>
<path fill="none" stroke="#888888" stroke-width="1.5" stroke-opacity="0.266667" d="M723.27,-762.75C739.77,-719.89 778.84,-618.43 798.84,-566.5"/>
</g>
<!-- Mexico&#45;&#45;William Gaudet -->
<g id="edge33" class="edge">
<title>Mexico&#45;&#45;William Gaudet</title>
<path fill="none" stroke="#888888" stroke-width="1.5" stroke-opacity="0.266667" d="M752.13,-780.69C798.64,-778.22 879.9,-773.92 937.51,-770.87"/>
</g>
<!-- G. Robert Blakey&#45;&#45;George Joannides -->
<g id="edge44" class="edge">
<title>G. Robert Blakey&#45;&#45;George Joannides</title>
<path fill="none" stroke="#888888" stroke-width="1.5" stroke-opacity="0.266667" d="M549.41,-733.64C577.99,-681.33 654.91,-540.57 696.58,-464.3"/>
</g>
<!-- G. Robert Blakey&#45;&#45;HSCA -->
<g id="edge45" class="edge">
<title>G. Robert Blakey&#45;&#45;HSCA</title>
<path fill="none" stroke="#888888" stroke-width="1.5" stroke-opacity="0.266667" d="M525.38,-733.93C499.04,-693.28 439.05,-600.69 407.18,-551.51"/>
</g>
<!-- ARRB -->
<g id="node16" class="node">
<title>ARRB</title>
<ellipse fill="#ff6b6b" stroke="black" cx="1009.06" cy="-433.85" rx="33" ry="20"/>
<text text-anchor="middle" x="1009.06" y="-430.15" font-family="Arial" font-size="14.00">ARRB</text>
</g>
<!-- ARRB&#45;&#45;CIA -->
<g id="edge46" class="edge">
<title>ARRB&#45;&#45;CIA</title>
<path fill="none" stroke="#888888" stroke-width="1.5" stroke-opacity="0.266667" d="M977.13,-439.31C924.56,-448.01 816.39,-464.69 724.04,-471.12 699.2,-472.85 671.87,-473.42 647.84,-473.47"/>
</g>
<!-- ARRB&#45;&#45;George Joannides -->
<g id="edge47" class="edge">
<title>ARRB&#45;&#45;George Joannides</title>
<path fill="none" stroke="#888888" stroke-width="1.5" stroke-opacity="0.266667" d="M976.12,-431.5C930.67,-428.25 847.74,-422.33 789.51,-418.17"/>
</g>
<!-- ARRB&#45;&#45;DRE -->
<g id="edge48" class="edge">
<title>ARRB&#45;&#45;DRE</title>
<path fill="none" stroke="#888888" stroke-width="1.5" stroke-opacity="0.266667" d="M982.23,-422.16C919.88,-394.99 764.59,-327.32 686.5,-293.29"/>
</g>
<!-- John McCone&#45;&#45;Warren Commission -->
<g id="edge51" class="edge">
<title>John McCone&#45;&#45;Warren Commission</title>
<path fill="none" stroke="#888888" stroke-width="1.5" stroke-opacity="0.266667" d="M180.79,-164.66C225.67,-161.15 287.27,-156.34 335.48,-152.57"/>
</g>
<!-- David Robarge&#45;&#45;Warren Commission -->
<g id="edge52" class="edge">
<title>David Robarge&#45;&#45;Warren Commission</title>
<path fill="none" stroke="#888888" stroke-width="1.5" stroke-opacity="0.266667" d="M85.55,-449.66C144.94,-394.39 316.43,-234.8 383.64,-172.24"/>
</g>
<!-- David Robarge&#45;&#45;John McCone -->
<g id="edge53" class="edge">
<title>David Robarge&#45;&#45;John McCone</title>
<path fill="none" stroke="#888888" stroke-width="1.5" stroke-opacity="0.266667" d="M68.67,-448.74C78.81,-394.18 106.75,-243.85 116.87,-189.39"/>
</g>
<!-- Cuban Consulate -->
<g id="node20" class="node">
<title>Cuban Consulate</title>
<ellipse fill="#ffe66d" stroke="black" cx="722.73" cy="-1011.18" rx="78.79" ry="18"/>
<text text-anchor="middle" x="722.73" y="-1007.48" font-family="Arial" font-size="14.00">Cuban Consulate</text>
</g>
<!-- Cuban Consulate&#45;&#45;Oswald -->
<g id="edge36" class="edge">
<title>Cuban Consulate&#45;&#45;Oswald</title>
<path fill="none" stroke="#888888" stroke-width="1.5" stroke-opacity="0.266667" d="M726.09,-993.09C739.26,-922.03 787.59,-661.46 804.88,-568.17"/>
</g>
<!-- Mexico City Station -->
<g id="node21" class="node">
<title>Mexico City Station</title>
<ellipse fill="#ff6b6b" stroke="black" cx="929.32" cy="-984.86" rx="86.38" ry="18"/>
<text text-anchor="middle" x="929.32" y="-981.16" font-family="Arial" font-size="14.00">Mexico City Station</text>
</g>
<!-- Cuban Consulate&#45;&#45;Mexico City Station -->
<g id="edge37" class="edge">
<title>Cuban Consulate&#45;&#45;Mexico City Station</title>
<path fill="none" stroke="#888888" stroke-width="1.5" stroke-opacity="0.266667" d="M791.52,-1002.42C812.06,-999.8 834.66,-996.92 855.51,-994.26"/>
</g>
<!-- Mexico City Station&#45;&#45;Oswald -->
<g id="edge38" class="edge">
<title>Mexico City Station&#45;&#45;Oswald</title>
<path fill="none" stroke="#888888" stroke-width="1.5" stroke-opacity="0.266667" d="M924.54,-966.65C906.59,-898.3 843.06,-656.4 819.75,-567.64"/>
</g>
</g>
</svg>
